<mxfile host="app.diagrams.net" modified="2023-05-08T15:51:09.030Z" agent="Mozilla/5.0 (Macintosh; Intel Mac OS X 10_15_7) AppleWebKit/537.36 (KHTML, like Gecko) Chrome/113.0.0.0 Safari/537.36" etag="smdnE-_sn_pMVeooYwVd" version="21.2.9" type="device">
  <diagram id="634ds8flJlQHz0d8bnNk" name="Page-1">
    <mxGraphModel dx="2714" dy="1434" grid="1" gridSize="10" guides="1" tooltips="1" connect="1" arrows="1" fold="1" page="1" pageScale="1" pageWidth="1100" pageHeight="850" math="0" shadow="0">
      <root>
        <mxCell id="0" />
        <mxCell id="1" parent="0" />
        <mxCell id="nJz4yXQHyGNLsNrlX3GL-46" value="&lt;i style=&quot;&quot;&gt;&lt;u style=&quot;&quot;&gt;Distributed Design of Experiments&lt;/u&gt;&lt;/i&gt;" style="rounded=0;whiteSpace=wrap;html=1;dashed=1;fillColor=none;verticalAlign=top;strokeWidth=2;" parent="1" vertex="1">
          <mxGeometry x="120" y="90" width="890" height="540" as="geometry" />
        </mxCell>
        <mxCell id="nJz4yXQHyGNLsNrlX3GL-45" value="&lt;i style=&quot;&quot;&gt;&lt;u&gt;Local Experiment Steering&lt;/u&gt;&lt;/i&gt;" style="rounded=0;whiteSpace=wrap;html=1;dashed=1;fillColor=none;verticalAlign=top;strokeWidth=2;" parent="1" vertex="1">
          <mxGeometry x="390" y="190" width="610" height="430" as="geometry" />
        </mxCell>
        <mxCell id="nJz4yXQHyGNLsNrlX3GL-1" value="&lt;i&gt;&lt;b&gt;Orient&lt;/b&gt;&lt;/i&gt;" style="rounded=0;whiteSpace=wrap;html=1;dashed=1;fillColor=none;verticalAlign=bottom;" parent="1" vertex="1">
          <mxGeometry x="520" y="390" width="120" height="90" as="geometry" />
        </mxCell>
        <mxCell id="nJz4yXQHyGNLsNrlX3GL-2" value="&lt;b&gt;&lt;i&gt;Decide&lt;/i&gt;&lt;/b&gt;" style="rounded=0;whiteSpace=wrap;html=1;dashed=1;fillColor=none;verticalAlign=top;" parent="1" vertex="1">
          <mxGeometry x="520" y="220" width="120" height="90" as="geometry" />
        </mxCell>
        <mxCell id="nJz4yXQHyGNLsNrlX3GL-3" value="&lt;b&gt;&lt;i&gt;Act&lt;/i&gt;&lt;/b&gt;" style="rounded=0;whiteSpace=wrap;html=1;dashed=1;fillColor=none;verticalAlign=top;" parent="1" vertex="1">
          <mxGeometry x="740" y="220" width="120" height="90" as="geometry" />
        </mxCell>
        <mxCell id="nJz4yXQHyGNLsNrlX3GL-4" value="&lt;i&gt;&lt;b&gt;Observe&lt;/b&gt;&lt;/i&gt;" style="rounded=0;whiteSpace=wrap;html=1;dashed=1;fillColor=none;verticalAlign=bottom;" parent="1" vertex="1">
          <mxGeometry x="740" y="390" width="120" height="90" as="geometry" />
        </mxCell>
        <mxCell id="nJz4yXQHyGNLsNrlX3GL-5" value="Experiment&lt;br&gt;Plan" style="sketch=0;pointerEvents=1;shadow=0;dashed=0;html=1;strokeColor=none;fillColor=#505050;labelPosition=center;verticalLabelPosition=bottom;verticalAlign=top;outlineConnect=0;align=center;shape=mxgraph.office.concepts.document;" parent="1" vertex="1">
          <mxGeometry x="430" y="270" width="30" height="40" as="geometry" />
        </mxCell>
        <mxCell id="nJz4yXQHyGNLsNrlX3GL-6" value="Controller" style="rounded=1;whiteSpace=wrap;html=1;fillColor=#fff2cc;gradientColor=#ffd966;strokeColor=#d6b656;" parent="1" vertex="1">
          <mxGeometry x="540" y="250" width="80" height="40" as="geometry" />
        </mxCell>
        <mxCell id="nJz4yXQHyGNLsNrlX3GL-7" value="" style="endArrow=classic;html=1;rounded=0;exitX=1;exitY=0.5;exitDx=0;exitDy=0;entryX=0;entryY=0.5;entryDx=0;entryDy=0;" parent="1" source="nJz4yXQHyGNLsNrlX3GL-6" target="nJz4yXQHyGNLsNrlX3GL-10" edge="1">
          <mxGeometry width="50" height="50" relative="1" as="geometry">
            <mxPoint x="600" y="480" as="sourcePoint" />
            <mxPoint x="610" y="300" as="targetPoint" />
          </mxGeometry>
        </mxCell>
        <mxCell id="nJz4yXQHyGNLsNrlX3GL-8" value="Test" style="ellipse;shape=cloud;whiteSpace=wrap;html=1;fillColor=#d5e8d4;gradientColor=#97d077;strokeColor=#82b366;" parent="1" vertex="1">
          <mxGeometry x="760" y="330" width="80" height="40" as="geometry" />
        </mxCell>
        <mxCell id="nJz4yXQHyGNLsNrlX3GL-9" value="Sensors" style="rounded=1;whiteSpace=wrap;html=1;fillColor=#fff2cc;gradientColor=#ffd966;strokeColor=#d6b656;" parent="1" vertex="1">
          <mxGeometry x="760" y="410" width="80" height="40" as="geometry" />
        </mxCell>
        <mxCell id="nJz4yXQHyGNLsNrlX3GL-10" value="Actuators" style="rounded=1;whiteSpace=wrap;html=1;fillColor=#fff2cc;gradientColor=#ffd966;strokeColor=#d6b656;" parent="1" vertex="1">
          <mxGeometry x="760" y="250" width="80" height="40" as="geometry" />
        </mxCell>
        <mxCell id="nJz4yXQHyGNLsNrlX3GL-11" value="" style="endArrow=classic;html=1;rounded=0;exitX=0.5;exitY=1;exitDx=0;exitDy=0;" parent="1" source="nJz4yXQHyGNLsNrlX3GL-10" target="nJz4yXQHyGNLsNrlX3GL-8" edge="1">
          <mxGeometry width="50" height="50" relative="1" as="geometry">
            <mxPoint x="680" y="530" as="sourcePoint" />
            <mxPoint x="730" y="480" as="targetPoint" />
          </mxGeometry>
        </mxCell>
        <mxCell id="nJz4yXQHyGNLsNrlX3GL-12" value="Analyser" style="rounded=1;whiteSpace=wrap;html=1;fillColor=#fff2cc;gradientColor=#ffd966;strokeColor=#d6b656;" parent="1" vertex="1">
          <mxGeometry x="540" y="410" width="80" height="40" as="geometry" />
        </mxCell>
        <mxCell id="nJz4yXQHyGNLsNrlX3GL-13" value="" style="endArrow=classic;html=1;rounded=0;exitX=0;exitY=0.25;exitDx=0;exitDy=0;entryX=1;entryY=0.25;entryDx=0;entryDy=0;" parent="1" source="nJz4yXQHyGNLsNrlX3GL-9" target="nJz4yXQHyGNLsNrlX3GL-12" edge="1">
          <mxGeometry width="50" height="50" relative="1" as="geometry">
            <mxPoint x="620" y="540" as="sourcePoint" />
            <mxPoint x="670" y="490" as="targetPoint" />
          </mxGeometry>
        </mxCell>
        <mxCell id="nJz4yXQHyGNLsNrlX3GL-14" value="" style="endArrow=classic;html=1;rounded=0;exitX=0.5;exitY=0;exitDx=0;exitDy=0;entryX=0.5;entryY=1;entryDx=0;entryDy=0;" parent="1" source="nJz4yXQHyGNLsNrlX3GL-12" target="nJz4yXQHyGNLsNrlX3GL-6" edge="1">
          <mxGeometry width="50" height="50" relative="1" as="geometry">
            <mxPoint x="620" y="540" as="sourcePoint" />
            <mxPoint x="670" y="490" as="targetPoint" />
          </mxGeometry>
        </mxCell>
        <mxCell id="nJz4yXQHyGNLsNrlX3GL-15" value="&lt;font style=&quot;font-size: 16px&quot;&gt;&amp;nbsp;&lt;/font&gt;&lt;br style=&quot;font-size: 14px&quot;&gt;Shared&lt;br&gt;Local&lt;br&gt;Storage" style="strokeWidth=1;html=1;shape=mxgraph.flowchart.database;whiteSpace=wrap;labelBackgroundColor=none;fillColor=#fff2cc;gradientColor=#ffd966;strokeColor=#d6b656;" parent="1" vertex="1">
          <mxGeometry x="660" y="310" width="60" height="80" as="geometry" />
        </mxCell>
        <mxCell id="nJz4yXQHyGNLsNrlX3GL-16" value="" style="shape=flexArrow;endArrow=classic;html=1;rounded=0;exitX=0;exitY=0;exitDx=0;exitDy=0;entryX=1;entryY=0.85;entryDx=0;entryDy=0;entryPerimeter=0;endSize=5;startSize=5;" parent="1" source="nJz4yXQHyGNLsNrlX3GL-9" target="nJz4yXQHyGNLsNrlX3GL-15" edge="1">
          <mxGeometry width="50" height="50" relative="1" as="geometry">
            <mxPoint x="620" y="520" as="sourcePoint" />
            <mxPoint x="710" y="400" as="targetPoint" />
          </mxGeometry>
        </mxCell>
        <mxCell id="nJz4yXQHyGNLsNrlX3GL-17" value="" style="shape=flexArrow;endArrow=classic;html=1;rounded=0;exitX=0;exitY=0.85;exitDx=0;exitDy=0;entryX=1;entryY=0;entryDx=0;entryDy=0;exitPerimeter=0;startArrow=block;startSize=5;endSize=5;" parent="1" source="nJz4yXQHyGNLsNrlX3GL-15" target="nJz4yXQHyGNLsNrlX3GL-12" edge="1">
          <mxGeometry width="50" height="50" relative="1" as="geometry">
            <mxPoint x="840" y="420" as="sourcePoint" />
            <mxPoint x="770" y="400" as="targetPoint" />
          </mxGeometry>
        </mxCell>
        <mxCell id="nJz4yXQHyGNLsNrlX3GL-18" value="" style="shape=flexArrow;endArrow=classic;html=1;rounded=0;exitX=0.017;exitY=0.05;exitDx=0;exitDy=0;entryX=1;entryY=1;entryDx=0;entryDy=0;exitPerimeter=0;startArrow=block;startSize=5;endSize=5;" parent="1" source="nJz4yXQHyGNLsNrlX3GL-15" target="nJz4yXQHyGNLsNrlX3GL-6" edge="1">
          <mxGeometry width="50" height="50" relative="1" as="geometry">
            <mxPoint x="710" y="400" as="sourcePoint" />
            <mxPoint x="630" y="420" as="targetPoint" />
          </mxGeometry>
        </mxCell>
        <mxCell id="nJz4yXQHyGNLsNrlX3GL-19" value="" style="shape=flexArrow;endArrow=classic;html=1;rounded=0;exitX=0.5;exitY=1;exitDx=0;exitDy=0;entryX=0.5;entryY=0;entryDx=0;entryDy=0;endSize=5;startSize=5;" parent="1" source="nJz4yXQHyGNLsNrlX3GL-8" target="nJz4yXQHyGNLsNrlX3GL-9" edge="1">
          <mxGeometry width="50" height="50" relative="1" as="geometry">
            <mxPoint x="770" y="420" as="sourcePoint" />
            <mxPoint x="730" y="381" as="targetPoint" />
          </mxGeometry>
        </mxCell>
        <mxCell id="nJz4yXQHyGNLsNrlX3GL-20" value="" style="shape=flexArrow;endArrow=classic;html=1;rounded=0;endSize=5;startSize=5;entryX=0;entryY=0.5;entryDx=0;entryDy=0;" parent="1" edge="1">
          <mxGeometry width="50" height="50" relative="1" as="geometry">
            <mxPoint x="470" y="280" as="sourcePoint" />
            <mxPoint x="540" y="280" as="targetPoint" />
          </mxGeometry>
        </mxCell>
        <mxCell id="nJz4yXQHyGNLsNrlX3GL-21" value="Raw Experiment&lt;br&gt;Result" style="sketch=0;pointerEvents=1;shadow=0;dashed=0;html=1;strokeColor=none;fillColor=#505050;labelPosition=center;verticalLabelPosition=bottom;verticalAlign=top;outlineConnect=0;align=center;shape=mxgraph.office.concepts.document;" parent="1" vertex="1">
          <mxGeometry x="920" y="410" width="30" height="40" as="geometry" />
        </mxCell>
        <mxCell id="nJz4yXQHyGNLsNrlX3GL-22" value="" style="shape=flexArrow;endArrow=classic;html=1;rounded=0;endSize=5;startSize=5;entryX=0;entryY=0.5;entryDx=0;entryDy=0;exitX=1;exitY=0.5;exitDx=0;exitDy=0;" parent="1" source="nJz4yXQHyGNLsNrlX3GL-9" edge="1">
          <mxGeometry width="50" height="50" relative="1" as="geometry">
            <mxPoint x="890" y="360" as="sourcePoint" />
            <mxPoint x="910" y="429.5" as="targetPoint" />
          </mxGeometry>
        </mxCell>
        <mxCell id="nJz4yXQHyGNLsNrlX3GL-23" value="Optional&lt;br&gt;Post-Processing" style="rounded=1;whiteSpace=wrap;html=1;dashed=1;fillColor=#f5f5f5;gradientColor=#b3b3b3;strokeColor=#666666;" parent="1" vertex="1">
          <mxGeometry x="750" y="520" width="100" height="40" as="geometry" />
        </mxCell>
        <mxCell id="nJz4yXQHyGNLsNrlX3GL-24" value="" style="shape=flexArrow;endArrow=classic;html=1;rounded=0;entryX=0.5;entryY=0;entryDx=0;entryDy=0;endSize=5;startSize=5;dashed=1;exitX=0.5;exitY=1;exitDx=0;exitDy=0;" parent="1" source="nJz4yXQHyGNLsNrlX3GL-9" target="nJz4yXQHyGNLsNrlX3GL-23" edge="1">
          <mxGeometry width="50" height="50" relative="1" as="geometry">
            <mxPoint x="800" y="460" as="sourcePoint" />
            <mxPoint x="840" y="420" as="targetPoint" />
          </mxGeometry>
        </mxCell>
        <mxCell id="nJz4yXQHyGNLsNrlX3GL-25" value="Optional&lt;br&gt;Post-Processed&lt;br&gt;Experiment Result" style="sketch=0;pointerEvents=1;shadow=0;dashed=1;html=1;strokeColor=none;fillColor=#505050;labelPosition=center;verticalLabelPosition=bottom;verticalAlign=top;outlineConnect=0;align=center;shape=mxgraph.office.concepts.document;" parent="1" vertex="1">
          <mxGeometry x="920" y="520" width="30" height="40" as="geometry" />
        </mxCell>
        <mxCell id="nJz4yXQHyGNLsNrlX3GL-26" value="" style="shape=flexArrow;endArrow=classic;html=1;rounded=0;endSize=5;startSize=5;exitX=1;exitY=0.5;exitDx=0;exitDy=0;dashed=1;" parent="1" edge="1">
          <mxGeometry width="50" height="50" relative="1" as="geometry">
            <mxPoint x="850" y="540" as="sourcePoint" />
            <mxPoint x="910" y="540" as="targetPoint" />
          </mxGeometry>
        </mxCell>
        <mxCell id="nJz4yXQHyGNLsNrlX3GL-27" value="&amp;nbsp;Control&amp;nbsp;" style="endArrow=classic;html=1;rounded=0;entryX=0;entryY=0.5;entryDx=0;entryDy=0;" parent="1" edge="1">
          <mxGeometry width="50" height="50" relative="1" as="geometry">
            <mxPoint x="130" y="570" as="sourcePoint" />
            <mxPoint x="200" y="570" as="targetPoint" />
          </mxGeometry>
        </mxCell>
        <mxCell id="nJz4yXQHyGNLsNrlX3GL-28" value="&amp;nbsp;Data&amp;nbsp;" style="shape=flexArrow;endArrow=classic;html=1;rounded=0;endSize=5;startSize=5;" parent="1" edge="1">
          <mxGeometry width="50" height="50" relative="1" as="geometry">
            <mxPoint x="130" y="600" as="sourcePoint" />
            <mxPoint x="200" y="600" as="targetPoint" />
          </mxGeometry>
        </mxCell>
        <mxCell id="nJz4yXQHyGNLsNrlX3GL-29" value="&lt;i&gt;&lt;b&gt;Orient&lt;/b&gt;&lt;/i&gt;" style="rounded=0;whiteSpace=wrap;html=1;dashed=1;fillColor=none;verticalAlign=bottom;" parent="1" vertex="1">
          <mxGeometry x="130" y="390" width="240" height="90" as="geometry" />
        </mxCell>
        <mxCell id="nJz4yXQHyGNLsNrlX3GL-30" value="&lt;b&gt;&lt;i&gt;Decide&lt;/i&gt;&lt;/b&gt;" style="rounded=0;whiteSpace=wrap;html=1;dashed=1;fillColor=none;verticalAlign=top;" parent="1" vertex="1">
          <mxGeometry x="250" y="100" width="120" height="210" as="geometry" />
        </mxCell>
        <mxCell id="nJz4yXQHyGNLsNrlX3GL-31" value="Experiment&lt;br&gt;Design Plan" style="sketch=0;pointerEvents=1;shadow=0;dashed=0;html=1;strokeColor=none;fillColor=#505050;labelPosition=center;verticalLabelPosition=bottom;verticalAlign=top;outlineConnect=0;align=center;shape=mxgraph.office.concepts.document;" parent="1" vertex="1">
          <mxGeometry x="160" y="250" width="30" height="40" as="geometry" />
        </mxCell>
        <mxCell id="nJz4yXQHyGNLsNrlX3GL-32" value="Remote&lt;br&gt;Planner" style="rounded=1;whiteSpace=wrap;html=1;fillColor=#ffcd28;gradientColor=#ffa500;strokeColor=#d79b00;" parent="1" vertex="1">
          <mxGeometry x="270" y="250" width="80" height="40" as="geometry" />
        </mxCell>
        <mxCell id="nJz4yXQHyGNLsNrlX3GL-33" value="Remote&lt;br&gt;Analyser" style="rounded=1;whiteSpace=wrap;html=1;fillColor=#ffcd28;gradientColor=#ffa500;strokeColor=#d79b00;" parent="1" vertex="1">
          <mxGeometry x="270" y="410" width="80" height="40" as="geometry" />
        </mxCell>
        <mxCell id="nJz4yXQHyGNLsNrlX3GL-34" value="" style="endArrow=classic;html=1;rounded=0;exitX=0.5;exitY=0;exitDx=0;exitDy=0;entryX=0.5;entryY=1;entryDx=0;entryDy=0;" parent="1" source="nJz4yXQHyGNLsNrlX3GL-33" target="nJz4yXQHyGNLsNrlX3GL-32" edge="1">
          <mxGeometry width="50" height="50" relative="1" as="geometry">
            <mxPoint x="350" y="540" as="sourcePoint" />
            <mxPoint x="400" y="490" as="targetPoint" />
          </mxGeometry>
        </mxCell>
        <mxCell id="nJz4yXQHyGNLsNrlX3GL-35" value="" style="shape=flexArrow;endArrow=classic;html=1;rounded=0;entryX=1;entryY=0.5;entryDx=0;entryDy=0;startArrow=block;startSize=5;endSize=5;entryPerimeter=0;" parent="1" source="nJz4yXQHyGNLsNrlX3GL-33" target="nJz4yXQHyGNLsNrlX3GL-37" edge="1">
          <mxGeometry width="50" height="50" relative="1" as="geometry">
            <mxPoint x="430" y="400" as="sourcePoint" />
            <mxPoint x="500" y="400" as="targetPoint" />
          </mxGeometry>
        </mxCell>
        <mxCell id="nJz4yXQHyGNLsNrlX3GL-36" value="" style="shape=flexArrow;endArrow=classic;html=1;rounded=0;endSize=5;startSize=5;entryX=0;entryY=0.5;entryDx=0;entryDy=0;" parent="1" target="nJz4yXQHyGNLsNrlX3GL-32" edge="1">
          <mxGeometry width="50" height="50" relative="1" as="geometry">
            <mxPoint x="200" y="270" as="sourcePoint" />
            <mxPoint x="650" y="370" as="targetPoint" />
          </mxGeometry>
        </mxCell>
        <mxCell id="nJz4yXQHyGNLsNrlX3GL-37" value="&lt;br&gt;Local&lt;br&gt;Storage" style="strokeWidth=1;html=1;shape=mxgraph.flowchart.database;whiteSpace=wrap;labelBackgroundColor=none;fillColor=#ffcd28;gradientColor=#ffa500;strokeColor=#d79b00;" parent="1" vertex="1">
          <mxGeometry x="150" y="400" width="60" height="60" as="geometry" />
        </mxCell>
        <mxCell id="nJz4yXQHyGNLsNrlX3GL-38" value="&lt;br&gt;Local&lt;br&gt;Storage" style="strokeWidth=1;html=1;shape=mxgraph.flowchart.database;whiteSpace=wrap;labelBackgroundColor=none;fillColor=#ffcd28;gradientColor=#ffa500;strokeColor=#d79b00;" parent="1" vertex="1">
          <mxGeometry x="280" y="130" width="60" height="60" as="geometry" />
        </mxCell>
        <mxCell id="nJz4yXQHyGNLsNrlX3GL-39" value="" style="shape=flexArrow;endArrow=classic;html=1;rounded=0;startArrow=block;startSize=5;endSize=5;" parent="1" source="nJz4yXQHyGNLsNrlX3GL-38" target="nJz4yXQHyGNLsNrlX3GL-32" edge="1">
          <mxGeometry width="50" height="50" relative="1" as="geometry">
            <mxPoint x="320" y="460" as="sourcePoint" />
            <mxPoint x="320" y="500" as="targetPoint" />
          </mxGeometry>
        </mxCell>
        <mxCell id="nJz4yXQHyGNLsNrlX3GL-40" value="" style="shape=flexArrow;endArrow=classic;html=1;rounded=0;endSize=5;startSize=5;entryX=0.75;entryY=1;entryDx=0;entryDy=0;exitX=0.75;exitY=0;exitDx=0;exitDy=0;" parent="1" source="nJz4yXQHyGNLsNrlX3GL-33" target="nJz4yXQHyGNLsNrlX3GL-32" edge="1">
          <mxGeometry width="50" height="50" relative="1" as="geometry">
            <mxPoint x="500" y="460" as="sourcePoint" />
            <mxPoint x="360" y="460" as="targetPoint" />
          </mxGeometry>
        </mxCell>
        <mxCell id="nJz4yXQHyGNLsNrlX3GL-41" value="" style="shape=flexArrow;endArrow=classic;html=1;rounded=0;endSize=5;startSize=5;entryX=0;entryY=0.5;entryDx=0;entryDy=0;" parent="1" edge="1">
          <mxGeometry width="50" height="50" relative="1" as="geometry">
            <mxPoint x="350" y="279.73" as="sourcePoint" />
            <mxPoint x="420" y="279.73" as="targetPoint" />
          </mxGeometry>
        </mxCell>
        <mxCell id="nJz4yXQHyGNLsNrlX3GL-42" value="" style="endArrow=classic;html=1;rounded=0;exitX=1;exitY=0.25;exitDx=0;exitDy=0;entryX=0;entryY=0.25;entryDx=0;entryDy=0;" parent="1" source="nJz4yXQHyGNLsNrlX3GL-32" target="nJz4yXQHyGNLsNrlX3GL-6" edge="1">
          <mxGeometry width="50" height="50" relative="1" as="geometry">
            <mxPoint x="260" y="290" as="sourcePoint" />
            <mxPoint x="390" y="290" as="targetPoint" />
          </mxGeometry>
        </mxCell>
        <mxCell id="nJz4yXQHyGNLsNrlX3GL-43" value="" style="endArrow=classic;html=1;rounded=0;entryX=1;entryY=0.75;entryDx=0;entryDy=0;exitX=0;exitY=0.75;exitDx=0;exitDy=0;" parent="1" source="nJz4yXQHyGNLsNrlX3GL-9" target="nJz4yXQHyGNLsNrlX3GL-33" edge="1">
          <mxGeometry width="50" height="50" relative="1" as="geometry">
            <mxPoint x="760" y="434.73" as="sourcePoint" />
            <mxPoint x="620" y="434.73" as="targetPoint" />
            <Array as="points">
              <mxPoint x="720" y="440" />
              <mxPoint x="720" y="500" />
              <mxPoint x="560" y="500" />
              <mxPoint x="520" y="500" />
              <mxPoint x="410" y="440" />
            </Array>
          </mxGeometry>
        </mxCell>
        <mxCell id="nJz4yXQHyGNLsNrlX3GL-44" value="" style="shape=flexArrow;endArrow=classic;html=1;rounded=0;endSize=5;startSize=5;entryX=1;entryY=0.25;entryDx=0;entryDy=0;exitX=0;exitY=0.5;exitDx=0;exitDy=0;exitPerimeter=0;" parent="1" source="nJz4yXQHyGNLsNrlX3GL-15" target="nJz4yXQHyGNLsNrlX3GL-33" edge="1">
          <mxGeometry width="50" height="50" relative="1" as="geometry">
            <mxPoint x="480" y="290" as="sourcePoint" />
            <mxPoint x="550" y="290" as="targetPoint" />
            <Array as="points">
              <mxPoint x="520" y="350" />
              <mxPoint x="410" y="420" />
            </Array>
          </mxGeometry>
        </mxCell>
      </root>
    </mxGraphModel>
  </diagram>
</mxfile>
